<?xml version="1.0" encoding="utf-8"?>
<!-- Generator: Adobe Illustrator 17.1.0, SVG Export Plug-In . SVG Version: 6.00 Build 0)  -->
<!DOCTYPE svg PUBLIC "-//W3C//DTD SVG 1.1//EN" "http://www.w3.org/Graphics/SVG/1.1/DTD/svg11.dtd">
<svg version="1.1" id="Layer_5" xmlns="http://www.w3.org/2000/svg" xmlns:xlink="http://www.w3.org/1999/xlink" x="0px" y="0px"
	 viewBox="0 0 744 512" enable-background="new 0 0 744 512" xml:space="preserve">
<g>
	<g>
		<g>
			<path fill="#F0D0B4" d="M92.8,270.8v59.4H63.1c-16.4,0-29.7-13.3-29.7-29.7V63.1c0,16.4,13.3,29.7,29.7,29.7h29.7V270.8z"/>
		</g>
		<g>
			<path fill="#E6E9ED" d="M92.8,270.8V92.8H63.1c-16.4,0-29.7-13.3-29.7-29.7c0-8.2,3.3-15.6,8.7-21c5.4-5.3,12.8-8.7,21-8.7h311.6
				v59.4c-41,0-74.2,33.2-74.2,74.2c0,5.1,0.5,10.1,1.5,14.8h-1.5c-16.4,0-29.7,13.3-29.7,29.7v59.4h-74.2H146H92.8z"/>
		</g>
		<g>
			<path fill="#FF826E" d="M122.5,63.1H256v59.4H122.5V63.1z"/>
		</g>
		<g>
			<path fill="#B4DD7F" d="M270.8,398.2v50.7h-51.9l-6-18.8c-7.9-2.2-15.4-5.3-22.4-9.2l-17.5,9l-31.5-31.5l9.1-17.5
				c-3.9-7-7-14.5-9.2-22.4l-18.8-6v-44.5l18.8-6c2.2-7.9,5.3-15.4,9.2-22.4l-4.5-8.7h50.6c-18,13.5-29.7,35.1-29.7,59.4
				c0,41,33.2,74.2,74.2,74.2C251.7,404.4,261.8,402.2,270.8,398.2L270.8,398.2z"/>
		</g>
		<g>
			<path fill="#969FAA" d="M478.6,211.5v237.4c0,16.4-13.3,29.7-29.7,29.7H300.5c-16.4,0-29.7-13.3-29.7-29.7v-50.7V270.8v-59.4
				c0-16.4,13.3-29.7,29.7-29.7h1.5c2.2,11,6.9,21.1,13.4,29.7h-14.9v59.4h148.4v-59.4H434c6.5-8.6,11.2-18.7,13.4-29.7h1.5
				C465.3,181.8,478.6,195.1,478.6,211.5L478.6,211.5z"/>
		</g>
		<g>
			<path fill="#FF826E" d="M419.2,359.9h29.7v89h-29.7V359.9z"/>
		</g>
		<g>
			<path fill="#FF826E" d="M419.2,300.5h29.7v29.7h-29.7V300.5z"/>
		</g>
		<g>
			<path fill="#FF826E" d="M359.9,300.5h29.7v29.7h-29.7V300.5z"/>
		</g>
		<g>
			<path fill="#FF826E" d="M359.9,359.9h29.7v29.7h-29.7V359.9z"/>
		</g>
		<g>
			<path fill="#FF826E" d="M359.9,419.2h29.7v29.7h-29.7V419.2z"/>
		</g>
		<g>
			<path fill="#FF826E" d="M300.5,419.2h29.7v29.7h-29.7V419.2z"/>
		</g>
		<g>
			<path fill="#FF826E" d="M300.5,359.9h29.7v29.7h-29.7V359.9z"/>
		</g>
		<g>
			<path fill="#FF826E" d="M300.5,300.5h29.7v29.7h-29.7V300.5z"/>
		</g>
		<g>
			<path fill="#69D6F4" d="M448.9,211.5v59.4H300.5v-59.4h14.9c13.5,18,35,29.7,59.3,29.7s45.8-11.6,59.3-29.7H448.9z"/>
		</g>
		<g>
			<path fill="#FCD770" d="M448.9,167c0,5.1-0.5,10.1-1.5,14.8c-2.2,11-6.9,21.1-13.4,29.7c-13.5,18-35,29.7-59.3,29.7
				s-45.8-11.6-59.3-29.7c-6.5-8.6-11.2-18.7-13.4-29.7c-1-4.7-1.5-9.7-1.5-14.8c0-41,33.2-74.2,74.2-74.2S448.9,126,448.9,167z"/>
		</g>
	</g>
	<g>
		<path d="M367.3,115v15.9c-8.6,2.7-14.8,10.6-14.8,20.1c0,8.1,4.5,15.3,11.7,18.9l14.5,7.2c2.2,1.1,3.5,3.3,3.5,5.7
			c0,3.5-2.8,6.3-6.3,6.3h-2.2c-3.5,0-6.3-2.8-6.3-6.3v-1.1h-14.8v1.1c0,9.5,6.3,17.4,14.8,20.1v15.9h14.8V203
			c8.6-2.7,14.8-10.6,14.8-20.1c0-8.1-4.5-15.3-11.7-18.9l-14.5-7.2c-2.2-1.1-3.5-3.3-3.5-5.7c0-3.5,2.8-6.3,6.3-6.3h2.2
			c3.5,0,6.3,2.8,6.3,6.3v1.1H397V151c0-9.5-6.3-17.4-14.8-20.1V115H367.3z"/>
		<path d="M455.9,175.1c0.3-2.7,0.4-5.4,0.4-8.1c0-42.5-32.7-77.5-74.2-81.2V26h-319C42.6,26,26,42.6,26,63.1v237.4
			c0,20.5,16.6,37.1,37.1,37.1h37.1v-59.4h41.3l0.6,1.2c-2.7,5.3-5,10.8-6.8,16.5l-20.3,6.5v55.3l20.3,6.5
			c1.8,5.7,4.1,11.3,6.8,16.5l-9.7,18.9l39.1,39.1l18.9-9.7c5.3,2.7,10.8,5,16.5,6.8l6.5,20.3h50.7c3.5,16.9,18.4,29.7,36.3,29.7
			h148.4c20.5,0,37.1-16.6,37.1-37.1V211.5C486,193.4,473,178.4,455.9,175.1L455.9,175.1z M441.5,167c0,36.8-30,66.8-66.8,66.8
			s-66.8-30-66.8-66.8s30-66.8,66.8-66.8S441.5,130.2,441.5,167z M441.5,218.9v44.5H307.9v-44.5h3.9c15,18.1,37.6,29.7,62.9,29.7
			c25.3,0,47.9-11.6,62.9-29.7H441.5z M85.4,322.8H63.1c-12.3,0-22.3-10-22.3-22.3V92.8c6.2,4.7,13.9,7.4,22.3,7.4h22.3V322.8z
			 M218.7,424l-3.8-1.1c-7.3-2.1-14.3-4.9-20.7-8.6l-3.5-1.9l-16.3,8.4L150.6,397l8.4-16.3l-2-3.5c-3.6-6.4-6.5-13.4-8.6-20.7
			l-1.1-3.8l-17.5-5.6v-33.7l17.5-5.6l1.1-3.8c2.1-7.3,4.9-14.3,8.6-20.7l1.9-3.5l-0.7-1.4h20c-12,14.4-18.6,32.6-18.6,51.9
			c0,45,36.6,81.6,81.6,81.6c7.6,0,15.1-1.1,22.3-3.2v32.8h-39.1L218.7,424z M263.4,393.1c-7.1,2.5-14.6,3.9-22.3,3.9
			c-36.8,0-66.8-30-66.8-66.8c0-20.4,9.1-39.2,25-51.9h64.1V393.1z M263.4,211.5v51.9H100.2V85.4H63.1c-12.3,0-22.3-10-22.3-22.3
			s10-22.3,22.3-22.3h304.2v44.9c-41.5,3.8-74.2,38.7-74.2,81.2c0,2.7,0.1,5.5,0.4,8.1C276.4,178.4,263.4,193.4,263.4,211.5z
			 M471.2,448.9c0,12.3-10,22.3-22.3,22.3H300.5c-12.3,0-22.3-10-22.3-22.3V211.5c0-10.9,7.8-19.9,18.1-21.8c1.5,5,3.4,9.8,5.7,14.4
			h-9v74.2h163.2v-74.2h-9c2.4-4.6,4.3-9.4,5.7-14.4c10.3,2,18.1,11,18.1,21.8V448.9z"/>
		<path d="M411.8,456.3h44.5V352.5h-44.5V456.3z M426.6,367.3h14.8v74.2h-14.8V367.3z"/>
		<path d="M352.5,456.3H397v-44.5h-44.5V456.3z M367.3,426.6h14.8v14.8h-14.8V426.6z"/>
		<path d="M293.1,456.3h44.5v-44.5h-44.5V456.3z M307.9,426.6h14.8v14.8h-14.8V426.6z"/>
		<path d="M352.5,397H397v-44.5h-44.5V397z M367.3,367.3h14.8v14.8h-14.8V367.3z"/>
		<path d="M293.1,397h44.5v-44.5h-44.5V397z M307.9,367.3h14.8v14.8h-14.8V367.3z"/>
		<path d="M352.5,337.6H397v-44.5h-44.5V337.6z M367.3,307.9h14.8v14.8h-14.8V307.9z"/>
		<path d="M411.8,337.6h44.5v-44.5h-44.5V337.6z M426.6,307.9h14.8v14.8h-14.8V307.9z"/>
		<path d="M293.1,337.6h44.5v-44.5h-44.5V337.6z M307.9,307.9h14.8v14.8h-14.8V307.9z"/>
		<path d="M115,129.9h148.4V55.7H115V129.9z M129.9,70.5h118.7V115H129.9V70.5z"/>
		<path d="M115,144.7h133.5v14.8H115V144.7z"/>
		<path d="M233.7,174.4h14.8v14.8h-14.8V174.4z"/>
		<path d="M204.1,174.4h14.8v14.8h-14.8V174.4z"/>
		<path d="M115,174.4h74.2v14.8H115V174.4z"/>
		<path d="M115,204.1h133.5v14.8H115V204.1z"/>
		<path d="M115,233.7h133.5v14.8H115V233.7z"/>
	</g>
</g>
<g>
	<path fill="#C91BC5" d="M502.9,16.6L397,69.5l105.9,52.9v-20.9h152v-16h-168v11.1l-54.1-27.1l54.1-27.1v11.1h232v-16h-216V16.6z"/>
	<path fill="#C91BC5" d="M670.9,85.5h16v16h-16V85.5z"/>
	<path fill="#C91BC5" d="M702.9,85.5h16v16h-16V85.5z"/>
</g>
</svg>
