<?xml version="1.0" encoding="utf-8"?>
<!-- Generator: Adobe Illustrator 17.1.0, SVG Export Plug-In . SVG Version: 6.00 Build 0)  -->
<!DOCTYPE svg PUBLIC "-//W3C//DTD SVG 1.1//EN" "http://www.w3.org/Graphics/SVG/1.1/DTD/svg11.dtd">
<svg version="1.1" id="Capa_1" xmlns="http://www.w3.org/2000/svg" xmlns:xlink="http://www.w3.org/1999/xlink" x="0px" y="0px"
	 viewBox="0 0 595.3 841.9" enable-background="new 0 0 595.3 841.9" xml:space="preserve">
<path fill="#006EFF" d="M437.7,683.7c-67.6,0-122.7-55-122.7-122.7c0-21.9,5.9-43.4,16.9-62.2c3.4-5.8,3.2-13-0.5-18.6
	c-2.1-3.1-5.1-5.4-8.6-6.7c-26-9.3-53.4-14-81.2-14C108.4,459.5,0,567.9,0,701.1c0,9.6,7.8,17.4,17.4,17.4h420.3
	c9.6,0,17.4-7.8,17.4-17.4C455.2,691.5,447.4,683.7,437.7,683.7z"/>
<path fill="#0050C3" d="M437.7,683.7c-67.6,0-122.7-55-122.7-122.7c0-21.9,5.9-43.4,16.9-62.2c3.4-5.8,3.2-13-0.5-18.6
	c-2.1-3.1-5.1-5.4-8.6-6.7c-26-9.3-53.4-14-81.2-14v259h196.1c9.6,0,17.4-7.8,17.4-17.4C455.2,691.5,447.4,683.7,437.7,683.7z"/>
<path fill="#FDD1A3" d="M241.6,123.3C139.3,123.3,56,206.5,56,308.9s83.2,185.6,185.6,185.6s185.6-83.2,185.6-185.6
	S343.9,123.3,241.6,123.3z"/>
<path fill="#FFBB85" d="M241.6,123.3L241.6,123.3v371.1l0,0c102.3,0,185.6-83.2,185.6-185.6S343.9,123.3,241.6,123.3z"/>
<path fill="#DC4BDE" d="M577.8,683.7H437.7c-67.6,0-122.7-55-122.7-122.7s55-122.7,122.7-122.7c67.6,0,122.7,55,122.7,122.7
	c0,16.1-13.1,29.3-29.3,29.3c-16.1,0-29.3-13.1-29.3-29.3c0-35.4-28.8-64.1-64.1-64.1c-35.4,0-64.1,28.8-64.1,64.1
	c0,35.4,28.8,64.1,64.1,64.1c18.4,0,35-7.8,46.7-20.2c11.7,12.4,28.3,20.2,46.7,20.2c35.4,0,64.1-28.8,64.1-64.1
	c0-86.9-70.7-157.5-157.5-157.5c-86.9,0-157.5,70.7-157.5,157.5s70.7,157.5,157.5,157.5h140.1c9.6,0,17.4-7.8,17.4-17.4
	C595.3,691.5,587.5,683.7,577.8,683.7z M437.7,590.3c-16.1,0-29.3-13.1-29.3-29.3c0-16.1,13.1-29.3,29.3-29.3
	c16.1,0,29.3,13.1,29.3,29.3C467,577.2,453.9,590.3,437.7,590.3z"/>
<g>
	<path fill="#9B2E5D" d="M577.8,683.7H437.7v34.9h140.1c9.6,0,17.4-7.8,17.4-17.4C595.3,691.5,587.5,683.7,577.8,683.7z"/>
	<path fill="#9B2E5D" d="M560.4,561c0,16.1-13.1,29.3-29.3,29.3c-16.1,0-29.3-13.1-29.3-29.3c0-35.4-28.8-64.1-64.1-64.1v34.9
		c16.1,0,29.3,13.1,29.3,29.3c0,16.1-13.1,29.3-29.3,29.3v34.9c18.4,0,35-7.8,46.7-20.2c11.7,12.4,28.3,20.2,46.7,20.2
		c35.4,0,64.1-28.8,64.1-64.1c0-86.9-70.7-157.5-157.5-157.5v34.9C505.4,438.4,560.4,493.4,560.4,561z"/>
</g>
<g>
	<g>
		<path fill="#9B2E5D" d="M534.7,32.6l-41.1,0.8C422.9,34.7,363,88.7,354.3,158.9l-0.8,6.5l-32.8-4.1c-4.3-0.5-8.5,1.5-10.7,5.2
			c-2.3,3.7-2.2,8.4,0.3,11.9l65.6,96.8c1.8,2.6,4.6,4.4,7.8,4.8c3.2,0.4,6.3-0.6,8.7-2.7l87.2-77.9c3.3-2.9,4.5-7.4,3.2-11.5
			c-1.3-4.1-4.9-7.1-9.1-7.6l-32.8-4.1l1.8-14.7c5.2-41.7,31-77.2,69.1-94.9l27.8-12.9c3.5-1.6,5.8-5,6.3-8.6
			c0.2-1.2,0.1-2.5-0.2-3.8C544.5,36.1,539.9,32.5,534.7,32.6z M420.9,158.7l-3.2,25.6c-0.7,6,3.5,11.5,9.6,12.3l19.6,2.4
			l-59.8,53.4l-45-66.3l19.6,2.4c6,0.7,11.5-3.5,12.3-9.6l2.2-17.4c7-56.6,53.3-100.6,109.4-105.7
			C449.9,78.6,426.2,115.9,420.9,158.7z"/>
	</g>
</g>
</svg>
