<?xml version="1.0" encoding="utf-8"?>
<!-- Generator: Adobe Illustrator 17.1.0, SVG Export Plug-In . SVG Version: 6.00 Build 0)  -->
<!DOCTYPE svg PUBLIC "-//W3C//DTD SVG 1.1//EN" "http://www.w3.org/Graphics/SVG/1.1/DTD/svg11.dtd">
<svg version="1.1" id="Capa_1" xmlns="http://www.w3.org/2000/svg" xmlns:xlink="http://www.w3.org/1999/xlink" x="0px" y="0px"
	 viewBox="0 0 595.3 841.9" enable-background="new 0 0 595.3 841.9" xml:space="preserve">
<path fill="#006EFF" d="M437.7,683.7c-67.6,0-122.7-55-122.7-122.7c0-21.9,5.9-43.4,16.9-62.2c3.4-5.8,3.2-13-0.5-18.6
	c-2.1-3.1-5.1-5.4-8.6-6.7c-26-9.3-53.4-14-81.2-14C108.4,459.5,0,567.9,0,701.1c0,9.6,7.8,17.4,17.4,17.4h420.3
	c9.6,0,17.4-7.8,17.4-17.4C455.2,691.5,447.4,683.7,437.7,683.7z"/>
<path fill="#0050C3" d="M437.7,683.7c-67.6,0-122.7-55-122.7-122.7c0-21.9,5.9-43.4,16.9-62.2c3.4-5.8,3.2-13-0.5-18.6
	c-2.1-3.1-5.1-5.4-8.6-6.7c-26-9.3-53.4-14-81.2-14v259h196.1c9.6,0,17.4-7.8,17.4-17.4C455.2,691.5,447.4,683.7,437.7,683.7z"/>
<path fill="#FDD1A3" d="M241.6,123.3C139.3,123.3,56,206.5,56,308.9s83.2,185.6,185.6,185.6s185.6-83.2,185.6-185.6
	S343.9,123.3,241.6,123.3z"/>
<path fill="#FFBB85" d="M241.6,123.3L241.6,123.3v371.1l0,0c102.3,0,185.6-83.2,185.6-185.6S343.9,123.3,241.6,123.3z"/>
<path fill="#DC4BDE" d="M577.8,683.7H437.7c-67.6,0-122.7-55-122.7-122.7s55-122.7,122.7-122.7c67.6,0,122.7,55,122.7,122.7
	c0,16.1-13.1,29.3-29.3,29.3c-16.1,0-29.3-13.1-29.3-29.3c0-35.4-28.8-64.1-64.1-64.1c-35.4,0-64.1,28.8-64.1,64.1
	c0,35.4,28.8,64.1,64.1,64.1c18.4,0,35-7.8,46.7-20.2c11.7,12.4,28.3,20.2,46.7,20.2c35.4,0,64.1-28.8,64.1-64.1
	c0-86.9-70.7-157.5-157.5-157.5c-86.9,0-157.5,70.7-157.5,157.5s70.7,157.5,157.5,157.5h140.1c9.6,0,17.4-7.8,17.4-17.4
	C595.3,691.5,587.5,683.7,577.8,683.7z M437.7,590.3c-16.1,0-29.3-13.1-29.3-29.3c0-16.1,13.1-29.3,29.3-29.3
	c16.1,0,29.3,13.1,29.3,29.3C467,577.2,453.9,590.3,437.7,590.3z"/>
<g>
	<path fill="#9B2E5D" d="M577.8,683.7H437.7v34.9h140.1c9.6,0,17.4-7.8,17.4-17.4C595.3,691.5,587.5,683.7,577.8,683.7z"/>
	<path fill="#9B2E5D" d="M560.4,561c0,16.1-13.1,29.3-29.3,29.3c-16.1,0-29.3-13.1-29.3-29.3c0-35.4-28.8-64.1-64.1-64.1v34.9
		c16.1,0,29.3,13.1,29.3,29.3c0,16.1-13.1,29.3-29.3,29.3v34.9c18.4,0,35-7.8,46.7-20.2c11.7,12.4,28.3,20.2,46.7,20.2
		c35.4,0,64.1-28.8,64.1-64.1c0-86.9-70.7-157.5-157.5-157.5v34.9C505.4,438.4,560.4,493.4,560.4,561z"/>
</g>
<g>
	<g>
		<path fill="#9B2E5D" d="M383.5,284.7c1.3,0,2.6-0.2,3.8-0.6c3.5-1.2,6.3-4.1,7.2-7.9l7.1-29.8c9.8-40.8,39.4-73.2,79.3-86.6
			l14.1-4.7l10.5,31.3c1.4,4.1,5,7,9.3,7.4c4.3,0.5,8.5-1.6,10.6-5.4l59-101c1.6-2.7,2-6,0.9-9c-1-3-3.3-5.4-6.2-6.6L471.1,26.9
			c-4-1.7-8.6-0.9-11.7,2.1c-3.1,2.9-4.3,7.5-2.9,11.5l10.5,31.3l-6.2,2.1c-67.1,22.5-108,91.9-95.2,161.5l7.4,40.4
			C373.9,280.8,378.3,284.6,383.5,284.7z M385.9,222.9c-6.2-56,27.8-110.1,81.8-128.2l16.6-5.6c5.8-1.9,8.9-8.2,6.9-13.9L485,56.5
			l74,30.9l-40.4,69.2l-6.3-18.7c-1.9-5.8-8.2-8.9-13.9-6.9l-24.5,8.2C432.9,152.8,401.1,183.5,385.9,222.9z"/>
	</g>
</g>
</svg>
