<?xml version="1.0" encoding="utf-8"?>
<!-- Generator: Adobe Illustrator 17.1.0, SVG Export Plug-In . SVG Version: 6.00 Build 0)  -->
<!DOCTYPE svg PUBLIC "-//W3C//DTD SVG 1.1//EN" "http://www.w3.org/Graphics/SVG/1.1/DTD/svg11.dtd">
<svg version="1.1" id="Layer_1_1_" xmlns="http://www.w3.org/2000/svg" xmlns:xlink="http://www.w3.org/1999/xlink" x="0px" y="0px"
	 viewBox="0 0 512 512" enable-background="new 0 0 512 512" xml:space="preserve">
<path fill="#50B6CF" d="M400,488H24V24h296l80,80V488z"/>
<path fill="#3CADC9" d="M400,104h-80V24L400,104z"/>
<path fill="#DED8D0" d="M64,392h64v64H64V392z"/>
<path fill="#DED8D0" d="M64,288h64v64H64V288z"/>
<path fill="#DED8D0" d="M64,184h64v64H64V184z"/>
<path fill="#DED8D0" d="M64,80h64v64H64V80z"/>
<path fill="#F5A947" d="M200,304L456,48l32,32L232,336l-48,16L200,304z"/>
<path fill="#3CADC9" d="M400,280c-40,80-225.3,187.2-376,191.6V488h376V280z"/>
<path fill="#F09D3A" d="M232,336L488,80l-12-12L196,348L232,336z"/>
<path fill="#E34E4B" d="M200,304l32,32l-48,16L200,304z"/>
<g>
	<path fill="#0D0F23" d="M64,152h64c4.4,0,8-3.6,8-8v-24h-16v16H72V88h24V72H64c-4.4,0-8,3.6-8,8v64C56,148.4,59.6,152,64,152z"/>
	<path fill="#0D0F23" d="M96,108.7L85.7,98.3l-11.3,11.3l16,16c1.6,1.6,3.6,2.3,5.7,2.3s4.1-0.8,5.7-2.3l48-48l-11.3-11.3L96,108.7z
		"/>
	<path fill="#0D0F23" d="M120,240H72v-48h24v-16H64c-4.4,0-8,3.6-8,8v64c0,4.4,3.6,8,8,8h64c4.4,0,8-3.6,8-8v-24h-16V240z"/>
	<path fill="#0D0F23" d="M96,212.7l-10.3-10.3l-11.3,11.3l16,16c1.6,1.6,3.6,2.3,5.7,2.3s4.1-0.8,5.7-2.3l48-48l-11.3-11.3L96,212.7
		z"/>
	<path fill="#0D0F23" d="M128,280H64c-4.4,0-8,3.6-8,8v64c0,4.4,3.6,8,8,8h64c4.4,0,8-3.6,8-8v-64C136,283.6,132.4,280,128,280z
		 M120,344H72v-48h48V344z"/>
	<path fill="#0D0F23" d="M128,384H64c-4.4,0-8,3.6-8,8v64c0,4.4,3.6,8,8,8h64c4.4,0,8-3.6,8-8v-64C136,387.6,132.4,384,128,384z
		 M120,448H72v-48h48V448z"/>
	<path fill="#0D0F23" d="M461.7,42.3c-3.1-3.1-8.2-3.1-11.3,0L400,92.7l-74.3-74.3c-1.5-1.5-3.5-2.3-5.7-2.3H24c-4.4,0-8,3.6-8,8
		v464c0,4.4,3.6,8,8,8h376c4.4,0,8-3.6,8-8V171.3l85.7-85.7c3.1-3.1,3.1-8.2,0-11.3L461.7,42.3z M392,480H32V32h284.7l64,64H328V56
		h-16v48c0,4.4,3.6,8,8,8h60.7L194.3,298.3c-0.9,0.9-1.5,1.9-1.9,3.1l-16,48c-1,2.9-0.2,6,1.9,8.2c1.5,1.5,3.6,2.3,5.7,2.3
		c0.8,0,1.7-0.1,2.5-0.4l48-16c1.2-0.4,2.2-1.1,3.1-1.9L392,187.3V480z M203.5,318.8l13.7,13.7l-20.5,6.8L203.5,318.8z M232,324.7
		L211.3,304L456,59.3L476.7,80L232,324.7z"/>
	<path fill="#0D0F23" d="M360,448h16v16h-16V448z"/>
	<path fill="#0D0F23" d="M328,448h16v16h-16V448z"/>
	<path fill="#0D0F23" d="M296,448h16v16h-16V448z"/>
</g>
<g>
	<path d="M391.2,150c-2.4,1.2-5.4,0.7-7.3-1.2l-20.4-20.4L277,214.9c-2.5,2.5-6.5,2.5-9,0l-46.6-46.6c-2.5-2.5-2.5-6.5,0-9L308,72.8
		l-20.4-20.4c-1.9-1.9-2.4-4.9-1.2-7.3c1.2-2.4,3.8-3.8,6.6-3.5l84.6,11.7c2.8,0.4,5,2.6,5.4,5.4l11.8,84.6
		C395.1,146.1,393.7,148.8,391.2,150z"/>
	<path d="M388.4,39l18.5-18.5c2.5-2.5,6.5-2.5,9,0c2.5,2.5,2.5,6.5,0,9L397.4,48c-2.5,2.5-6.5,2.5-9,0
		C385.9,45.5,385.9,41.5,388.4,39z"/>
	<path d="M396.2,72.8c0.2-3.5,3.2-6.2,6.7-6l27.5,1.4c3.5,0.2,6.2,3.2,6,6.7c-0.2,3.5-3.2,6.2-6.7,6l-27.5-1.4
		c-1.6-0.1-3.1-0.8-4.2-1.8C396.8,76.4,396.1,74.6,396.2,72.8z"/>
	<path d="M355.6,6.7c-0.2-3.5,2.5-6.5,6-6.7c3.5-0.2,6.5,2.5,6.7,6l1.4,27.5c0.2,3.5-2.5,6.5-6,6.7c-1.9,0.1-3.6-0.6-4.8-1.8
		c-1.1-1.1-1.8-2.5-1.8-4.2L355.6,6.7z"/>
</g>
</svg>
