<?xml version="1.0" encoding="utf-8"?>
<!-- Generator: Adobe Illustrator 17.1.0, SVG Export Plug-In . SVG Version: 6.00 Build 0)  -->
<!DOCTYPE svg PUBLIC "-//W3C//DTD SVG 1.1//EN" "http://www.w3.org/Graphics/SVG/1.1/DTD/svg11.dtd">
<svg version="1.1" id="Layer_1" xmlns="http://www.w3.org/2000/svg" xmlns:xlink="http://www.w3.org/1999/xlink" x="0px" y="0px"
	 viewBox="0 0 512 512" enable-background="new 0 0 512 512" xml:space="preserve">
<g id="Flat">
	<path fill="#F8BC1E" d="M224,64h256v120H224V64z"/>
	<path fill="#F5A922" d="M480,72H224v16h232v8.3c0,35.2-28.5,63.7-63.7,63.7l0,0H244c-6.6,0-12,5.4-12,12v12h248V72z"/>
	<path fill="#F79726" d="M440,144h16v16h-16V144z"/>
	<path fill="#F8BC1E" d="M216,40h272v32H216V40z"/>
	<path fill="#F9DA62" d="M304,40h96v88h-96V40z"/>
	<path fill="#F8BC1E" d="M304,72h96v16h-96V72z"/>
	<path fill="#F8BC1E" d="M224,208h256v120H224V208z"/>
	<path fill="#F5A922" d="M480,216H224v16h232v8.3c0,35.2-28.5,63.7-63.7,63.7l0,0H244c-6.6,0-12,5.4-12,12v12h248V216z"/>
	<path fill="#F79726" d="M440,288h16v16h-16V288z"/>
	<path fill="#F8BC1E" d="M216,184h272v32H216V184z"/>
	<path fill="#F9DA62" d="M304,184h96v88h-96V184z"/>
	<path fill="#F8BC1E" d="M304,216h96v16h-96V216z"/>
	<path fill="#F8BC1E" d="M224,352h256v120H224V352z"/>
	<path fill="#F5A922" d="M480,360H224v16h232v8.3c0,35.2-28.5,63.7-63.7,63.7l0,0H244c-6.6,0-12,5.4-12,12v12h248V360z"/>
	<path fill="#F79726" d="M440,432h16v16h-16V432z"/>
	<path fill="#F8BC1E" d="M216,328h272v32H216V328z"/>
	<path fill="#F9DA62" d="M304,328h96v88h-96V328z"/>
	<path fill="#F8BC1E" d="M304,360h96v16h-96V360z"/>
	<path fill="#0093B9" d="M88,184h224v304H88V184z"/>
	<g>
		<path fill="#57C3C1" d="M192,303v9h16v-9c12-3.8,18.7-16.6,15-28.6c-1.9-5.9-6-10.8-11.6-13.6l-15.6-7.8c-3.4-1.7-4.7-5.8-3.1-9.2
			c1.2-2.3,3.5-3.8,6.1-3.8h2.3c3.8,0,6.8,3.1,6.8,6.8v1.2h16v-1.2c0-10-6.5-18.8-16-21.8v-9h-16v9c-12,3.8-18.7,16.6-15,28.6
			c1.9,5.9,6,10.8,11.6,13.6l15.6,7.8c3.4,1.7,4.7,5.8,3.1,9.2c-1.2,2.3-3.5,3.8-6.1,3.8h-2.3c-3.8,0-6.8-3.1-6.8-6.8V280h-16v1.2
			C176,291.1,182.5,300,192,303z"/>
		<path fill="#57C3C1" d="M144,256h16v16h-16V256z"/>
		<path fill="#57C3C1" d="M240,256h16v16h-16V256z"/>
		<path fill="#57C3C1" d="M160,336h16v16h-16V336z"/>
		<path fill="#57C3C1" d="M192,336h88v16h-88V336z"/>
		<path fill="#57C3C1" d="M136,368h144v16H136V368z"/>
		<path fill="#57C3C1" d="M136,400h144v16H136V400z"/>
		<path fill="#57C3C1" d="M136,432h120v16H136V432z"/>
	</g>
	<path fill="#0093B9" d="M112,144h144v16H112V144z"/>
	<path fill="#0093B9" d="M272,144h16v16h-16V144z"/>
	<path fill="#F7C9A8" d="M16,416l16-16v-72c0-13.3,10.7-24,24-24h32v32l20-20c6.6-6.6,17.4-6.6,24,0c6.6,6.6,6.6,17.4,0,24l-36,36
		c17.7,17.7,17.7,46.3,0,64l-40,40L16,416z"/>
	<path fill="#E5B18C" d="M72,340.6l4.7-4.7c3.1-3.1,8.2-3.1,11.3,0l0,0c3.1,3.1,3.1,8.2,0,11.3l-4.7,4.7c-3.1,3.1-8.2,3.1-11.3,0
		l0,0C68.8,348.8,68.8,343.8,72,340.6z"/>
</g>
<g>
	<path fill="#57A4FF" d="M182,112h40l-72-88l-72,88h40v72h64V112z"/>
	<path fill="#57A4FF" d="M182,232h-64v-24h64V232z"/>
	<path fill="#004FAC" d="M64.8,115.4c1.3,2.8,4.1,4.6,7.2,4.6h32v64c0,4.4,3.6,8,8,8h64c4.4,0,8-3.6,8-8v-64h32c4.4,0,8-3.6,8-8
		c0-1.8-0.6-3.6-1.8-5.1l-72-88c-2.8-3.4-7.8-3.9-11.3-1.1c-0.4,0.3-0.8,0.7-1.1,1.1l-72,88C63.9,109.3,63.4,112.6,64.8,115.4z
		 M144,36.6l55.1,67.4H176c-4.4,0-8,3.6-8,8v64h-48v-64c0-4.4-3.6-8-8-8H88.9L144,36.6z"/>
	<path fill="#004FAC" d="M176,200h-64c-4.4,0-8,3.6-8,8v24c0,4.4,3.6,8,8,8h64c4.4,0,8-3.6,8-8v-24C184,203.6,180.4,200,176,200z
		 M168,224h-48v-8h48V224z"/>
</g>
</svg>
