<?xml version="1.0" encoding="utf-8"?>
<!-- Generator: Adobe Illustrator 17.1.0, SVG Export Plug-In . SVG Version: 6.00 Build 0)  -->
<!DOCTYPE svg PUBLIC "-//W3C//DTD SVG 1.1//EN" "http://www.w3.org/Graphics/SVG/1.1/DTD/svg11.dtd">
<svg version="1.1" id="Capa_1" xmlns="http://www.w3.org/2000/svg" xmlns:xlink="http://www.w3.org/1999/xlink" x="0px" y="0px"
	 viewBox="0 0 512 512" enable-background="new 0 0 512 512" xml:space="preserve">
<g>
	<g>
		<g>
			<g>
				<g>
					<g>
						<g>
							<g>
								<g>
									<g>
										<g>
											<g>
												<g>
													<g>
														<path fill="#F4F8F8" d="M67.1,7.5c-17.1,0-30.9,13.8-30.9,30.9v397.9c0,17.1,13.8,30.9,30.9,30.9h290.5
															c17.1,0,30.9-13.8,30.9-30.9V102.8c0-6.2-2.5-12.2-6.9-16.5l-71.9-71.9c-4.4-4.4-10.3-6.9-16.5-6.9L67.1,7.5z"/>
														<path fill="#E7ECF1" d="M333.8,93.1c-2.3,0-4.6-0.3-6.8-0.8v344c0,17.1-13.8,30.9-30.9,30.9h61.4
															c17.1,0,30.9-13.8,30.9-30.9V102.8c0-3.4-0.7-6.7-2.1-9.7H333.8z"/>
														<path fill="#FC8086" d="M381.6,86.2l-71.9-71.9c-2-2-4.3-3.6-6.9-4.7v52.6c0,17.1,13.8,30.9,30.9,30.9h52.6
															C385.2,90.5,383.6,88.2,381.6,86.2z"/>
													</g>
												</g>
											</g>
										</g>
									</g>
								</g>
							</g>
						</g>
					</g>
				</g>
				<g>
					<g>
						<g>
							<g>
								<g>
									<path fill="#FFECE3" d="M413.1,409.3L302.8,344c-5.7-3.4-7.5-10.7-4.2-16.3c0,0,2.7-4.6,5.6-9.5l-22.3-13.2
										c-14.7-8.5-21.6-10-34.9-4.9l-14.5,5.6c-8.8,3.4-18.7,2.6-26.8-2.2L167,280.6l-55,92.9l49.6,29.3c3.4,2,6.3,4.6,8.7,7.7
										l16.7,21.7c9.2,10.8,28.3,24.8,40.5,32.1l63.8,37.8c8.4,5,19.3,2.2,24.3-6.2s2.2-19.3-6.2-24.3l19.9,11.8
										c8.4,5,19.3,2.2,24.3-6.2s2.2-19.3-6.2-24.3l13.3,7.9c8.4,5,19.3,2.2,24.3-6.2c5-8.4,2.2-19.3-6.2-24.3l16.3,9.6
										c8.4,5,19.3,2.2,24.3-6.2C424.4,425.2,421.6,414.3,413.1,409.3L413.1,409.3z"/>
								</g>
								<path fill="#FFDDCE" d="M413.1,409.3l-38-22.5c-0.8,3.3-2.5,6.4-5.1,9.1c-6.7,7-17.6,8.1-25.9,3.2l-10.8-6.4
									c-0.4-0.2-0.9-0.2-1.2,0.2c-0.3,0.3-0.3,0.8-0.1,1.2c4.5,6.4,5.2,15.2,0.9,22.4c-5.8,9.8-18.5,13.1-28.3,7.2l-8.5-5.1
									c-0.3-0.2-0.8-0.1-1,0.2c-0.3,0.3-0.3,0.7,0,1.1c5,6.6,5.8,15.8,1.1,23.3c-6,9.7-18.8,12.4-28.6,6.6l-7-4.1
									c-1.4-0.8-3.1-0.8-4.4,0.2s-2,2.5-1.6,4.1c1,4.8,0.3,10.1-2.5,14.6c-2.3,3.9-5.8,6.8-9.6,8.4l48.5,28.7
									c8.5,5.1,20,2.4,24.9-6.3c4.8-8.4,1.9-19.1-6.4-24l19.5,11.6c8.6,5.1,20,2.4,24.9-6.3c4.8-8.4,1.9-19.1-6.4-24l12.9,7.6
									c8.5,5.1,20,2.4,24.9-6.3c4.8-8.4,1.9-19.1-6.4-24l15.9,9.4c8.5,5.1,20,2.4,24.9-6.3C424.3,424.9,421.5,414.2,413.1,409.3
									L413.1,409.3z"/>
							</g>
							<g>
								<path fill="#FCD0A3" d="M403.6,286.1l-29.8,17.3c-8.1,4.8-18,5.6-26.8,2.2l-16.3-6.4c-5.1-2-10.7-2.4-16-1l-25,6.3
									c-11.6,2.9-19.8,13.4-19.8,25.4v33.4c0,4.7,3.8,8.6,8.5,8.6c14.2,0,25.8-11.5,25.8-25.8v-1.4l107.1,63.4
									c2-2.1,4.3-3.9,6.8-5.4l40.6-23.7L403.6,286.1z"/>
							</g>
							<g>
								<path fill="#FFB983" d="M419.5,312.9l-5.7,21.2l-64.1,37.6l61.6,36.5c2-2.1,4.3-3.9,6.8-5.4l40.6-23.7L419.5,312.9z"/>
							</g>
							<g>
								<g>
									<path fill="#FCD0A3" d="M183.3,422.4l-10,14c-5.7,8-16.8,9.8-24.7,4.1c-8-5.7-9.8-16.8-4.1-24.7l10-14
										c5.7-8,16.8-9.8,24.7-4.1C187.2,403.4,189,414.5,183.3,422.4L183.3,422.4z"/>
									<path fill="#FCD0A3" d="M223.2,427.7l-21.1,29.4c-5.7,8-16.8,9.8-24.7,4.1c-8-5.7-9.8-16.8-4.1-24.7l21.1-29.4
										c5.7-8,16.8-9.8,24.7-4.1C227.1,408.7,228.9,419.7,223.2,427.7z"/>
									<path fill="#FCD0A3" d="M252,448.4l-21.1,29.4c-5.7,8-16.8,9.8-24.7,4.1c-8-5.7-9.8-16.8-4.1-24.7l21.1-29.4
										c5.7-8,16.8-9.8,24.7-4.1C255.9,429.3,257.7,440.4,252,448.4L252,448.4z"/>
								</g>
								<path fill="#FFB983" d="M271.4,482.1l-7,9.8c-5.7,8-16.8,9.8-24.7,4.1c-8-5.7-9.8-16.8-4.1-24.7l7-9.8
									c5.7-8,16.8-9.8,24.7-4.1C275.3,463.1,277.1,474.1,271.4,482.1L271.4,482.1z"/>
							</g>
						</g>
					</g>
					<g>
						<path fill="#7C8B96" d="M187.7,270.9l-15.5-9.2c-4.3-2.5-9.8-1.1-12.3,3.2L96.1,372.6c-2.5,4.3-1.1,9.8,3.2,12.3l15.5,9.2
							c10.4,6.2,23.9,2.7,30-7.7l50.6-85.5C201.6,290.5,198.1,277.1,187.7,270.9L187.7,270.9z"/>
						<path fill="#7C8B96" d="M398.4,261.7l-15.5,9.2c-10.4,6.2-13.9,19.6-7.7,30l50.6,85.5c6.2,10.4,19.6,13.9,30,7.7l15.5-9.2
							c4.3-2.5,5.7-8,3.2-12.3l-63.8-107.7C408.2,260.6,402.6,259.2,398.4,261.7z"/>
					</g>
				</g>
			</g>
		</g>
	</g>
	<g>
		<g>
			<g>
				<path d="M335,137.8H89.8c-4.2,0-7.5,3.4-7.5,7.5s3.4,7.5,7.5,7.5H335c4.2,0,7.5-3.4,7.5-7.5S339.1,137.8,335,137.8L335,137.8z"
					/>
				<path d="M89.8,100.6h122.6c4.2,0,7.5-3.4,7.5-7.5s-3.4-7.5-7.5-7.5H89.8c-4.2,0-7.5,3.4-7.5,7.5
					C82.2,97.3,85.6,100.6,89.8,100.6z"/>
				<path d="M335,184.1H89.8c-4.2,0-7.5,3.4-7.5,7.5s3.4,7.5,7.5,7.5H335c4.2,0,7.5-3.4,7.5-7.5C342.5,187.5,339.1,184.1,335,184.1
					L335,184.1z"/>
				<path d="M145.6,459.7H67.2c-12.9,0-23.4-10.5-23.4-23.4V38.4c0-12.9,10.5-23.4,23.4-23.4h226.1c0.7,0,1.4,0.1,2.2,0.2v47
					c0,21.2,17.2,38.4,38.4,38.4h47c0.1,0.7,0.2,1.4,0.2,2.2V231c0,4.2,3.4,7.5,7.5,7.5s7.5-3.4,7.5-7.5V102.8
					c0-8.3-3.2-16-9.1-21.9L315.1,9.1C309.2,3.2,301.5,0,293.2,0H67.2C46,0,28.7,17.2,28.7,38.4v397.9c0,21.2,17.2,38.4,38.4,38.4
					h78.5c4.2,0,7.5-3.4,7.5-7.5S149.8,459.7,145.6,459.7L145.6,459.7z M370.3,85.6h-36.5c-12.9,0-23.4-10.5-23.4-23.4V25.7
					L370.3,85.6z"/>
				<path d="M481,368.7L417.1,261c-4.7-7.9-14.8-10.4-22.6-5.8l-15.5,9.2c-12,7.1-17.1,21.6-13,34.4c-5.2,1.9-11,1.9-16.2-0.2
					c-12.3-3.9-21.6-11.6-37-7.7c-26.1,6.7-25.3,6.3-27.7,7.1c-15.3-8.7-24.5-11.3-40.7-5l-14.5,5.6c-6.7,2.6-14.1,2-20.3-1.7
					l-4-2.3c1.9-11.6-3.2-23.7-14-30.2c0,0,0,0,0,0l-15.5-9.2c-7.8-4.6-18-2-22.6,5.8L89.6,368.7c-4.7,7.9-2.1,18,5.8,22.6l15.5,9.2
					c4.7,2.8,9.9,4.1,15,4.1c5.7,0,11.3-1.6,16.1-4.8l3.2,1.9l-6.8,9.5c-8.1,11.3-5.6,27.1,5.8,35.2c5.2,3.8,11.8,5.5,18.6,4.4
					c1.1,6.3,4.5,12.2,10.1,16.3c5.3,3.8,11.8,5.5,18.6,4.4c1.1,6.3,4.5,12.2,10.1,16.2c7.5,5.4,16.9,6,24.7,2.7
					c1.7,4.4,4.7,8.4,8.8,11.4c10.8,7.8,25.7,5.7,34.1-4.3l18.1,10.8c12,7.1,27.5,3.2,34.6-8.9c1.8-3.1,2.9-6.4,3.4-9.9l0,0
					c12,7.1,27.5,3.1,34.6-8.9c2.1-3.5,3.2-7.2,3.5-11c10.6,2.7,22.1-1.8,27.9-11.6c1.9-3.2,3-6.7,3.4-10.2
					c11.3,4.4,24.6,0.1,30.9-10.6c3.4-5.8,4.4-12.6,2.7-19.1c-1-3.7-2.7-7.1-5.1-10l10-5.8c8.5,3.5,18.1,2.9,26.2-1.9l15.5-9.2
					C483,386.7,485.6,376.6,481,368.7L481,368.7z M118.6,387.6l-15.5-9.2c-0.7-0.4-0.9-1.3-0.5-2l63.8-107.7c0.4-0.7,1.3-0.9,2-0.5
					l15.5,9.2c6.9,4.1,9.1,12.9,5,19.7l-50.6,85.5C134.3,389.4,125.4,391.6,118.6,387.6L118.6,387.6z M152.9,434.3
					c-4.6-3.3-5.6-9.6-2.3-14.2l10-14c3.2-4.5,9.6-5.7,14.2-2.3c4.6,3.3,5.6,9.7,2.3,14.2l-10,14
					C163.9,436.6,157.5,437.6,152.9,434.3z M181.7,455c-4.6-3.3-5.6-9.7-2.3-14.2l10-14c0,0,0,0,0,0c0,0,0,0,0,0l11.1-15.4
					c1.6-2.2,3.9-3.7,6.6-4.1c0.6-0.1,1.1-0.1,1.7-0.1c2.1,0,4.2,0.7,5.9,1.9c2.2,1.6,3.7,3.9,4.1,6.6c0.4,2.7-0.2,5.4-1.8,7.6
					L196,452.7C192.7,457.3,186.3,458.3,181.7,455z M210.5,475.7c-4.6-3.3-5.6-9.7-2.3-14.2c0,0,0,0,0,0l21.1-29.4
					c3.3-4.6,9.7-5.6,14.2-2.3c4.6,3.3,5.6,9.7,2.3,14.2l-9.4,13.1c0,0,0,0,0,0l-11.7,16.3C221.5,477.9,215.1,479,210.5,475.7
					L210.5,475.7z M244,489.8c-4.6-3.3-5.6-9.6-2.3-14.2l7-9.8c3.3-4.6,9.7-5.6,14.2-2.3c4.6,3.3,5.6,9.7,2.3,14.2l-7,9.8
					C255,492,248.6,493.1,244,489.8z M412.9,429.7c-2.9,4.8-9.1,6.4-14,3.6c-8.2-4.9-61-36.2-66.7-39.5c-3.6-2.1-8.2-0.9-10.3,2.6
					s-0.9,8.2,2.6,10.3l50.4,29.9l0,0c4.8,2.9,6.5,9.1,3.6,14c-2.9,4.8-9.1,6.4-14,3.6c-18.6-11-33.8-20-50.4-29.9
					c-3.6-2.1-8.2-0.9-10.3,2.6s-0.9,8.2,2.6,10.3l37.1,22l0,0c4.8,2.9,6.4,9.1,3.6,14c-2.9,4.8-9.1,6.4-14,3.6L313.3,465
					c0,0,0,0,0,0c0,0,0,0,0,0l-14.5-8.6c-3.6-2.1-8.2-0.9-10.3,2.6c-2.1,3.6-0.9,8.2,2.6,10.3l14.5,8.6c0,0,0,0,0,0
					c4.8,2.9,6.5,9.1,3.6,14c-2.9,4.8-9.1,6.4-14,3.6l-17-10.1c7.3-11.2,4.5-26.4-6.5-34.2c-3.2-2.3-6.8-3.8-10.5-4.4
					c3.9-10.4,0.5-22.6-8.9-29.4c-5.6-4-12.3-5.4-18.6-4.4c-1.1-6.6-4.7-12.4-10.2-16.3c-10.2-7.3-24.1-5.9-32.7,2.8
					c-1.7-3.1-4.1-5.8-7.2-8c-8.5-6.1-19.5-6.2-27.9-1l-3.5-2l47.4-80l2.3,1.3c10,5.9,22.1,7.1,33.4,2.8l14.5-5.6
					c8.3-3.2,12.9-3.4,21,0.5c-5.4,6-8.5,13.9-8.5,22.5v33.4c0,8.9,7.2,16.1,16.1,16.1h0c8.9,0,17.3-3.5,23.5-9.7
					c3.7-3.7,6.4-8,8-12.8c9.7,5.8,90.1,53.3,99.4,58.9c2.3,1.4,4,3.6,4.7,6.2C414.6,424.7,414.2,427.4,412.9,429.7L412.9,429.7z
					 M467.5,378.4l-15.5,9.2c-6.8,4-15.7,1.8-19.7-5l-23.7-40.1c-2.1-3.6-6.7-4.8-10.3-2.6c-3.6,2.1-4.8,6.7-2.6,10.3l23.7,40.1
					c0.4,0.8,0.9,1.5,1.4,2.2l-6.6,3.9c-1.3,0.8-2.6,1.7-3.8,2.6L308,338.3c-5-3-11.4,0.6-11.4,6.5c-0.1,0.5,0.8,8.2-5.3,14.3
					c-3.4,3.4-8,5.3-12.9,5.3c0,0,0,0,0,0c-0.6,0-1-0.5-1-1V330c0-8.7,6-16.1,14.1-18.1l25-6.3c9.1-2.3,14.2,2.6,27.8,7.2
					c9.4,3.6,19.7,3.4,28.8-0.5l4.5,7.7c2.1,3.6,6.7,4.8,10.3,2.6c3.6-2.1,4.8-6.7,2.6-10.3l-9-15.1c-4.1-6.8-1.8-15.6,5-19.7
					l15.5-9.2c0.7-0.4,1.6-0.2,2,0.5L468,376.4C468.4,377.1,468.2,378,467.5,378.4L467.5,378.4z"/>
			</g>
		</g>
	</g>
</g>
<g>
	<path d="M337.4,71.8c2.4-1.2,5.4-0.7,7.3,1.2l20.4,20.4l86.5-86.5c2.5-2.5,6.5-2.5,9,0l46.6,46.6c2.5,2.5,2.5,6.5,0,9l-86.5,86.5
		l20.4,20.4c1.9,1.9,2.4,4.9,1.2,7.3c-1.2,2.4-3.8,3.8-6.6,3.5l-84.6-11.7c-2.8-0.4-5-2.6-5.4-5.4l-11.8-84.6
		C333.5,75.7,334.9,73,337.4,71.8z"/>
	<path d="M340.2,182.8l-18.5,18.5c-2.5,2.5-6.5,2.5-9,0c-2.5-2.5-2.5-6.5,0-9l18.5-18.5c2.5-2.5,6.5-2.5,9,0
		C342.7,176.3,342.7,180.3,340.2,182.8z"/>
	<path d="M332.4,149c-0.2,3.5-3.2,6.2-6.7,6l-27.5-1.4c-3.5-0.2-6.2-3.2-6-6.7c0.2-3.5,3.2-6.2,6.7-6l27.5,1.4
		c1.6,0.1,3.1,0.8,4.2,1.8C331.8,145.4,332.5,147.1,332.4,149z"/>
	<path d="M373.1,215.1c0.2,3.5-2.5,6.5-6,6.7c-3.5,0.2-6.5-2.5-6.7-6l-1.4-27.5c-0.2-3.5,2.5-6.5,6-6.7c1.9-0.1,3.6,0.6,4.8,1.8
		c1.1,1.1,1.8,2.5,1.8,4.2L373.1,215.1z"/>
</g>
</svg>
