<svg id="Layer_2_copy" height="512" viewBox="0 0 512 512" width="512" xmlns="http://www.w3.org/2000/svg" data-name="Layer 2 copy"><path d="m288 392-32-24v-168h-80v192h36z" fill="#1990ba"/><path d="m176 144v56h80v-104h-104l-16 128h27z" fill="#23a3db"/><path d="m184 96v-74.462a13.538 13.538 0 0 1 13.538-13.538h42.462v45.692c0 12.15-4.927 22-17.077 22h-11.846v20.308z" fill="#fdcaa7"/><path d="m104 224h80v64h-80z" fill="#894619" transform="matrix(-1 0 0 -1 288 512)"/><path d="m256 96 40 24v-64h24v80.912a16 16 0 0 1 -21.618 14.981l-42.382-15.893z" fill="#1990ba"/><path d="m288 24h72v32h-72z" fill="#129696"/><path d="m360 16h24v48h-24z" fill="#3dfaff"/><path d="m272 200h120v-40l56 56-56 48v-32h-120z" fill="#f7d74f"/><path d="m222.385 392-13.042-19.562a8 8 0 0 1 -1.343-4.438v-128h16v125.578l17.615 26.422z" fill="#147d99"/><path d="m240 32v-24h-42.461a13.539 13.539 0 0 0 -13.539 13.539v34.461l32-24z" fill="#894619"/><path d="m216 32-32 24v40h27.077v-20.308h11.846c12.15 0 17.077-9.85 17.077-22v-21.692z" fill="#fdcaa7"/><path d="m0 448h104l48-56h160l56-56h80v-48l56 72-56 72v-48h-64l-64 64h-152l-48 56h-120" fill="#eac734"/><path d="m448 216h-176v16h120v32z" fill="#eac734"/><path d="m240 53.692v-45.692h-15.5v50.127a15.4 15.4 0 0 1 -6.383 12.481l-7.041 5.084h11.846c12.151 0 17.078-9.849 17.078-22z" fill="#e28f56" opacity=".3"/><path d="m360 24h-72v8h96v-16h-24z" fill="#fff" opacity=".3"/><path d="m169 224h15v64h-15z" fill="#6b320c"/><path d="m168 448h152l64-64h64v48l56-72-.259-.333h-126.074l-57.667 60.666h-157.667l-51.333 58h-111v25.667h120z" fill="#f7d74f"/><path d="m454.314 283.089a8 8 0 0 0 -14.314 4.911v40h-72a8 8 0 0 0 -5.657 2.343l-53.656 53.657h-18.02l-26.667-20v-216.456l31.573 11.841a24 24 0 0 0 32.427-22.473v-72.912h24a8 8 0 0 0 8 8h24a8 8 0 0 0 8-8v-48a8 8 0 0 0 -8-8h-24a8 8 0 0 0 -8 8h-64a8 8 0 0 0 -8 8v8h-24v16h24v8a8 8 0 0 0 8 8v41.87l-27.884-16.73v.007a7.95 7.95 0 0 0 -4.116-1.147h-36.923v-4.308h3.846c15.468 0 25.077-11.5 25.077-30v-45.692a8 8 0 0 0 -8-8h-42.462a21.563 21.563 0 0 0 -21.538 21.538v66.462h-24a8 8 0 0 0 -7.938 7.008l-15.124 120.992h-24.938a8 8 0 0 0 -8 8v64a8 8 0 0 0 8 8h64v88h-16a8 8 0 0 0 -6.074 2.794l-45.606 53.206h-100.32v16h104a8 8 0 0 0 6.074-2.794l45.606-53.206h156.32a8 8 0 0 0 5.657-2.343l53.656-53.657h76.687a8 8 0 0 0 8-8v-24.684l37.865 48.684-37.865 48.684v-24.684a8 8 0 0 0 -8-8h-64a8 8 0 0 0 -5.657 2.343l-61.656 61.657h-148.687a8 8 0 0 0 -6.074 2.794l-45.606 53.206h-116.32v16h120a8 8 0 0 0 6.074-2.794l45.606-53.206h148.32a8 8 0 0 0 5.657-2.343l61.656-61.657h52.687v40a8 8 0 0 0 14.314 4.911l56-72a8 8 0 0 0 0-9.822zm-78.314-259.089v32h-8v-32zm-80 8h56v16h-56zm-4.116 94.86a8 8 0 0 0 12.116-6.86v-56h8v72.912a8 8 0 0 1 -10.81 7.491l-37.19-13.946v-20.327zm-94.346-110.86h34.462v8h-16a8 8 0 0 0 -4.8 1.6l-19.2 14.4v-18.462a5.544 5.544 0 0 1 5.538-5.538zm-5.538 44 26.667-20h13.333v13.692c0 14-6.832 14-9.077 14h-11.846a8 8 0 0 0 -8 8v12.308h-11.077zm-80 172h64v48h-64zm72 152v-88a8 8 0 0 0 8-8v-64a8 8 0 0 0 -8-8h-38.937l14-112h42.261l14.806 81.431 15.742-2.861-14.286-78.57h30.414v88h-64v-48h-16v56a8 8 0 0 0 8 8h72v160a8 8 0 0 0 3.2 6.4l12.8 9.6h-27.719l-12.281-18.422v-125.578h-16v128a8 8 0 0 0 1.344 4.438l7.708 11.562z"/><path d="m388.657 271.269a8 8 0 0 0 8.549-1.194l56-48a8 8 0 0 0 .451-11.731l-56-56a8 8 0 0 0 -13.657 5.656v32h-112v16h120a8 8 0 0 0 8-8v-20.687l36.234 36.234-36.234 31.059v-14.606a8 8 0 0 0 -8-8h-120v16h112v24a8 8 0 0 0 4.657 7.269z"/></svg>