<?xml version="1.0" encoding="utf-8"?>
<!-- Generator: Adobe Illustrator 17.1.0, SVG Export Plug-In . SVG Version: 6.00 Build 0)  -->
<!DOCTYPE svg PUBLIC "-//W3C//DTD SVG 1.1//EN" "http://www.w3.org/Graphics/SVG/1.1/DTD/svg11.dtd">
<svg version="1.1" id="Capa_1" xmlns="http://www.w3.org/2000/svg" xmlns:xlink="http://www.w3.org/1999/xlink" x="0px" y="0px"
	 viewBox="0 0 595.3 841.9" enable-background="new 0 0 595.3 841.9" xml:space="preserve">
<g>
	<g>
		<path fill="#F6BB42" d="M593.9,270.7c0.1,0.2,0.2,0.3,0.3,0.5C594.1,271.1,594,270.9,593.9,270.7z"/>
		<path fill="#F6BB42" d="M594.6,272.2c0.1,0.2,0.2,0.4,0.2,0.6C594.8,272.6,594.7,272.4,594.6,272.2z"/>
		<path fill="#F6BB42" d="M594.3,271.4c0.1,0.2,0.2,0.4,0.3,0.6C594.5,271.8,594.4,271.6,594.3,271.4z"/>
		<path fill="#F6BB42" d="M595.3,275.4c0-0.2,0-0.4,0-0.7C595.3,274.9,595.3,275.1,595.3,275.4z"/>
		<path fill="#F6BB42" d="M593.2,269.8c0,0-0.1-0.1-0.1-0.1l-81.5-93.1c-0.1-0.1-0.1-0.1-0.2-0.2c-0.1-0.1-0.2-0.2-0.3-0.3
			c-0.1-0.1-0.2-0.2-0.3-0.3c-0.1-0.1-0.2-0.2-0.3-0.3c-0.1-0.1-0.2-0.2-0.4-0.3c-0.1-0.1-0.2-0.2-0.3-0.2c-0.1-0.1-0.3-0.2-0.4-0.2
			c-0.1-0.1-0.2-0.1-0.4-0.2c-0.1-0.1-0.3-0.1-0.4-0.2c-0.1-0.1-0.3-0.1-0.4-0.2c-0.1,0-0.3-0.1-0.4-0.1c-0.1,0-0.3-0.1-0.4-0.1
			c-0.1,0-0.3-0.1-0.4-0.1c-0.1,0-0.3-0.1-0.4-0.1c-0.1,0-0.3,0-0.4-0.1c-0.1,0-0.3,0-0.4,0c-0.2,0-0.3,0-0.5,0c-0.1,0-0.2,0-0.3,0
			H90.2c-0.1,0-0.2,0-0.3,0c-0.2,0-0.3,0-0.5,0c-0.1,0-0.3,0-0.4,0c-0.1,0-0.3,0-0.4,0.1c-0.1,0-0.3,0.1-0.4,0.1
			c-0.1,0-0.3,0.1-0.4,0.1c-0.1,0-0.3,0.1-0.4,0.1c-0.1,0-0.3,0.1-0.4,0.1c-0.1,0.1-0.3,0.1-0.4,0.2c-0.1,0.1-0.3,0.1-0.4,0.2
			c-0.1,0.1-0.2,0.1-0.3,0.2c-0.1,0.1-0.3,0.2-0.4,0.2c-0.1,0.1-0.2,0.1-0.3,0.2c-0.1,0.1-0.2,0.2-0.4,0.3c-0.1,0.1-0.2,0.2-0.3,0.3
			c-0.1,0.1-0.2,0.2-0.3,0.3c-0.1,0.1-0.2,0.2-0.3,0.3c-0.1,0.1-0.1,0.1-0.2,0.2L2.2,269.7c0,0,0,0.1-0.1,0.1
			C3.7,267.9,591.6,267.9,593.2,269.8z"/>
		<path fill="#F6BB42" d="M595.1,273.8c0,0.2,0.1,0.4,0.1,0.7C595.2,274.3,595.2,274,595.1,273.8z"/>
		<path fill="#F6BB42" d="M594.9,273c0.1,0.2,0.1,0.4,0.2,0.6C595,273.4,595,273.2,594.9,273z"/>
		<path fill="#F6BB42" d="M1.6,270.5c0.1-0.1,0.1-0.2,0.2-0.3C1.7,270.3,1.6,270.4,1.6,270.5z"/>
		<path fill="#F6BB42" d="M0.2,273.6c0-0.1,0.1-0.3,0.1-0.4C0.3,273.3,0.2,273.4,0.2,273.6z"/>
		<path fill="#F6BB42" d="M0.1,274.4c0-0.2,0-0.3,0.1-0.5C0.1,274.1,0.1,274.3,0.1,274.4z"/>
		<path fill="#F6BB42" d="M593.4,270.1c0.1,0.1,0.2,0.3,0.3,0.4C593.7,270.4,593.5,270.2,593.4,270.1z"/>
		<path fill="#F6BB42" d="M0.4,272.8c0-0.1,0.1-0.3,0.1-0.4C0.5,272.5,0.5,272.6,0.4,272.8z"/>
		<path fill="#F6BB42" d="M0,274.8c0,0.2,0,0.3,0,0.5C0,275.1,0,275,0,274.8z"/>
		<path fill="#F6BB42" d="M0.7,272c0.1-0.1,0.1-0.3,0.2-0.4C0.8,271.7,0.8,271.8,0.7,272z"/>
		<path fill="#F6BB42" d="M1.1,271.2c0.1-0.1,0.1-0.2,0.2-0.3C1.2,271,1.2,271.1,1.1,271.2z"/>
	</g>
	<path fill="#DCA746" d="M593.1,269.7l-81.5-93.1c-0.1-0.1-0.1-0.1-0.2-0.2c-0.1-0.1-0.2-0.2-0.3-0.3c-0.1-0.1-0.2-0.2-0.3-0.3
		c-0.1-0.1-0.2-0.2-0.3-0.3c-0.1-0.1-0.2-0.2-0.4-0.3c-0.1-0.1-0.2-0.2-0.3-0.2c-0.1-0.1-0.3-0.2-0.4-0.2c-0.1-0.1-0.2-0.1-0.4-0.2
		c-0.1-0.1-0.3-0.1-0.4-0.2c-0.1-0.1-0.3-0.1-0.4-0.2c-0.1,0-0.3-0.1-0.4-0.1c-0.1,0-0.3-0.1-0.4-0.1c-0.1,0-0.3-0.1-0.4-0.1
		c-0.1,0-0.3-0.1-0.4-0.1c-0.1,0-0.3,0-0.4-0.1c-0.1,0-0.3,0-0.4,0c-0.2,0-0.3,0-0.5,0c-0.1,0-0.2,0-0.3,0h-34.9c0.1,0,0.2,0,0.3,0
		c0.2,0,0.3,0,0.5,0c0.1,0,0.3,0,0.4,0c0.1,0,0.3,0,0.4,0.1c0.1,0,0.3,0.1,0.4,0.1c0.1,0,0.3,0.1,0.4,0.1c0.1,0,0.3,0.1,0.4,0.1
		c0.1,0,0.3,0.1,0.4,0.1c0.1,0.1,0.3,0.1,0.4,0.2c0.1,0.1,0.3,0.1,0.4,0.2c0.1,0.1,0.2,0.1,0.4,0.2c0.1,0.1,0.3,0.2,0.4,0.2
		c0.1,0.1,0.2,0.1,0.3,0.2c0.1,0.1,0.2,0.2,0.4,0.3c0.1,0.1,0.2,0.2,0.3,0.3c0.1,0.1,0.2,0.2,0.3,0.3c0.1,0.1,0.2,0.2,0.3,0.3
		c0.1,0.1,0.1,0.1,0.2,0.2l78.9,90.1h31c2.7,0,5.1,1.2,6.7,3.1C593.2,269.8,593.2,269.7,593.1,269.7z"/>
	<path fill="#FFCE54" d="M586.5,668.3H30.3c-4.8,0-30.3-3.9-30.3-8.7V275.4c0-4.8,3.9-8.7,8.7-8.7h577.8c4.8,0,8.7,3.9,8.7,8.7
		v384.2C595.3,664.4,591.4,668.3,586.5,668.3z"/>
	<path fill="#F6BB42" d="M586.5,266.7h-34.9c4.8,0,8.7,3.9,8.7,8.7v384.2c0,4.8-3.9,8.7-8.7,8.7h34.9c4.8,0,8.7-3.9,8.7-8.7V275.4
		C595.3,270.6,591.4,266.7,586.5,266.7z"/>
	<g>
		<path fill="#656D78" d="M136.8,586.8H55.3c-4.8,0-8.7-3.9-8.7-8.7s3.9-8.7,8.7-8.7h81.5c4.8,0,8.7,3.9,8.7,8.7
			S141.6,586.8,136.8,586.8z"/>
		<path fill="#656D78" d="M101.9,621.8H55.3c-4.8,0-8.7-3.9-8.7-8.7c0-4.8,3.9-8.7,8.7-8.7h46.6c4.8,0,8.7,3.9,8.7,8.7
			C110.6,617.8,106.7,621.8,101.9,621.8z"/>
		<path fill="#656D78" d="M540,621.8h-34.9c-4.8,0-8.7-3.9-8.7-8.7v-34.9c0-4.8,3.9-8.7,8.7-8.7H540c4.8,0,8.7,3.9,8.7,8.7V613
			C548.7,617.8,544.8,621.8,540,621.8z"/>
		<path fill="#656D78" d="M470.1,621.8h-34.9c-4.8,0-8.7-3.9-8.7-8.7v-34.9c0-4.8,3.9-8.7,8.7-8.7h34.9c4.8,0,8.7,3.9,8.7,8.7V613
			C478.9,617.8,475,621.8,470.1,621.8z"/>
	</g>
	<polygon fill="#DA4453" points="341.7,173.6 254.4,173.6 219.4,266.7 297.6,273.7 376.6,266.7 	"/>
	<path fill="#ED5564" d="M219.4,266.7v8.7v89.6v3.5c0,0,0,0.1,0,0.1c0,0.2,0,0.4,0,0.5c0,0.1,0,0.2,0,0.4c0,0.1,0,0.3,0.1,0.4
		c0,0.1,0,0.3,0.1,0.4c0,0.1,0.1,0.2,0.1,0.3c0,0.2,0.1,0.3,0.1,0.5c0,0.1,0.1,0.2,0.1,0.3c0.1,0.2,0.1,0.3,0.2,0.5
		c0,0.1,0.1,0.2,0.1,0.3c0.1,0.2,0.1,0.3,0.2,0.5c0.1,0.1,0.1,0.2,0.2,0.4s0.1,0.2,0.2,0.3c0.1,0.1,0.2,0.3,0.3,0.4
		c0.1,0.1,0.1,0.2,0.2,0.3c0.1,0.1,0.2,0.3,0.4,0.4c0.1,0.1,0.1,0.1,0.2,0.2c0.1,0.1,0.3,0.2,0.4,0.3c0.1,0.1,0.2,0.2,0.3,0.2
		c0.1,0.1,0.2,0.2,0.4,0.3c0.1,0.1,0.2,0.2,0.4,0.2c0.1,0.1,0.2,0.1,0.3,0.2c0.1,0.1,0.3,0.2,0.5,0.3c0,0,0.1,0,0.1,0.1l23.3,11.6
		c0.1,0,0.2,0.1,0.2,0.1c0.1,0.1,0.3,0.1,0.4,0.2c0.2,0.1,0.5,0.2,0.7,0.2c0.1,0,0.2,0.1,0.4,0.1c0.3,0.1,0.5,0.1,0.8,0.2
		c0.1,0,0.2,0,0.3,0c0.4,0,0.7,0.1,1.1,0.1c0,0,0,0,0,0c0,0,0,0,0,0c0.4,0,0.7,0,1.1-0.1c0.1,0,0.2,0,0.3,0c0.3,0,0.5-0.1,0.8-0.2
		c0.1,0,0.2-0.1,0.4-0.1c0.2-0.1,0.5-0.2,0.7-0.2c0.1-0.1,0.3-0.1,0.4-0.2c0.1,0,0.2-0.1,0.2-0.1l19.4-9.7l19.4,9.7
		c0.1,0,0.2,0.1,0.2,0.1c0.1,0.1,0.3,0.1,0.4,0.2c0.2,0.1,0.5,0.2,0.7,0.2c0.1,0,0.2,0.1,0.4,0.1c0.3,0.1,0.5,0.1,0.8,0.2
		c0.1,0,0.2,0,0.3,0c0.4,0,0.7,0.1,1.1,0.1c0,0,0,0,0,0c0,0,0,0,0,0c0.4,0,0.7,0,1.1-0.1c0.1,0,0.2,0,0.3,0c0.3,0,0.5-0.1,0.8-0.2
		c0.1,0,0.2-0.1,0.4-0.1c0.2-0.1,0.5-0.2,0.7-0.2c0.1-0.1,0.3-0.1,0.4-0.2c0.1,0,0.2-0.1,0.2-0.1l19.4-9.7l19.4,9.7
		c0.1,0,0.2,0.1,0.3,0.1c0.1,0.1,0.3,0.1,0.4,0.2c0.2,0.1,0.5,0.2,0.7,0.2c0.1,0,0.2,0.1,0.3,0.1c0.3,0.1,0.5,0.1,0.8,0.2
		c0.1,0,0.2,0,0.3,0c0.4,0,0.7,0.1,1.1,0.1c0,0,0,0,0,0c0,0,0,0,0,0c0.4,0,0.7,0,1.1-0.1c0.1,0,0.2,0,0.3,0c0.3,0,0.5-0.1,0.8-0.2
		c0.1,0,0.2-0.1,0.3-0.1c0.2-0.1,0.5-0.2,0.7-0.3c0.1-0.1,0.3-0.1,0.4-0.2c0.1,0,0.2-0.1,0.3-0.1l23.3-11.6c0,0,0.1,0,0.1-0.1
		c0.2-0.1,0.3-0.2,0.5-0.3c0.1-0.1,0.2-0.1,0.3-0.2c0.1-0.1,0.3-0.2,0.4-0.3c0.1-0.1,0.2-0.2,0.3-0.2c0.1-0.1,0.2-0.2,0.3-0.3
		c0.1-0.1,0.2-0.2,0.4-0.3c0.1-0.1,0.2-0.2,0.2-0.3c0.1-0.1,0.2-0.2,0.3-0.4c0.1-0.1,0.2-0.2,0.2-0.3c0.1-0.1,0.2-0.2,0.3-0.4
		c0.1-0.1,0.2-0.3,0.3-0.4c0.1-0.1,0.1-0.2,0.2-0.3c0.1-0.2,0.2-0.3,0.3-0.5c0-0.1,0.1-0.1,0.1-0.2c0.1-0.2,0.2-0.4,0.2-0.6
		c0-0.1,0.1-0.1,0.1-0.2c0.1-0.2,0.1-0.4,0.2-0.6c0-0.1,0-0.2,0.1-0.3c0-0.2,0.1-0.3,0.1-0.5c0-0.1,0-0.3,0.1-0.4c0-0.1,0-0.3,0-0.4
		c0-0.2,0-0.3,0-0.5c0,0,0-0.1,0-0.1v-3.5v-89.6v-8.7L219.4,266.7L219.4,266.7z"/>
</g>
<path d="M397.2,304.8c-7.5,0-15,2.9-20.7,8.6l-36.7,36.7V222.8v-58.6V51.8c0-16.2-13.1-29.3-29.3-29.3c-16.2,0-29.3,13.1-29.3,29.3
	v112.3v58.6v129.3l-38.7-38.7c-5.7-5.7-13.2-8.6-20.7-8.6s-15,2.9-20.7,8.6c-11.5,11.4-11.5,30,0,41.5l87.5,87.5
	c5.7,5.7,13.2,8.6,20.7,8.6c0.1,0,0.2,0,0.2,0s0.1,0,0.2,0c7.5,0,15-2.8,20.7-8.6l87.5-87.5c11.5-11.4,11.5-30,0-41.5
	C412.2,307.7,404.7,304.8,397.2,304.8z"/>
</svg>
