<?xml version="1.0" encoding="utf-8"?>
<!-- Generator: Adobe Illustrator 17.1.0, SVG Export Plug-In . SVG Version: 6.00 Build 0)  -->
<!DOCTYPE svg PUBLIC "-//W3C//DTD SVG 1.1//EN" "http://www.w3.org/Graphics/SVG/1.1/DTD/svg11.dtd">
<svg version="1.1" id="Flat" xmlns="http://www.w3.org/2000/svg" xmlns:xlink="http://www.w3.org/1999/xlink" x="0px" y="0px"
	 viewBox="0 0 512 512" enable-background="new 0 0 512 512" xml:space="preserve">
<path fill="#6A7073" d="M88,24h336v464H88V24z"/>
<path fill="#FAE8D8" d="M376,56v384l-24-16l-24,16l-24-16l-24,16l-24-16l-24,16l-24-16l-24,16l-24-16l-24,16V56H376z"/>
<g>
	<path fill="#7E8488" d="M200,192h-24c-4.4,0-8-3.6-8-8s3.6-8,8-8h24c4.4,0,8-3.6,8-8s-3.6-8-8-8h-16c-13.3,0-24-10.7-24-24
		s10.7-24,24-24h24c4.4,0,8,3.6,8,8s-3.6,8-8,8h-24c-4.4,0-8,3.6-8,8s3.6,8,8,8h16c13.3,0,24,10.7,24,24S213.3,192,200,192z"/>
	<path fill="#7E8488" d="M192,208c-4.4,0-8-3.6-8-8v-16c0-4.4,3.6-8,8-8s8,3.6,8,8v16C200,204.4,196.4,208,192,208z"/>
	<path fill="#7E8488" d="M192,128c-4.4,0-8-3.6-8-8v-16c0-4.4,3.6-8,8-8s8,3.6,8,8v16C200,124.4,196.4,128,192,128z"/>
	<path fill="#7E8488" d="M344,128h-56c-4.4,0-8-3.6-8-8s3.6-8,8-8h56c4.4,0,8,3.6,8,8S348.4,128,344,128z"/>
	<path fill="#7E8488" d="M304,192h-56c-4.4,0-8-3.6-8-8s3.6-8,8-8h56c4.4,0,8,3.6,8,8S308.4,192,304,192z"/>
	<path fill="#7E8488" d="M344,160h-96c-4.4,0-8-3.6-8-8s3.6-8,8-8h96c4.4,0,8,3.6,8,8S348.4,160,344,160z"/>
	<path fill="#7E8488" d="M344,240H168c-4.4,0-8-3.6-8-8s3.6-8,8-8h176c4.4,0,8,3.6,8,8S348.4,240,344,240z"/>
	<path fill="#7E8488" d="M344,272H168c-4.4,0-8-3.6-8-8s3.6-8,8-8h176c4.4,0,8,3.6,8,8S348.4,272,344,272z"/>
	<path fill="#7E8488" d="M240,304h-40c-4.4,0-8-3.6-8-8s3.6-8,8-8h40c4.4,0,8,3.6,8,8S244.4,304,240,304z"/>
	<path fill="#7E8488" d="M240,336h-40c-4.4,0-8-3.6-8-8s3.6-8,8-8h40c4.4,0,8,3.6,8,8S244.4,336,240,336z"/>
	<path fill="#7E8488" d="M240,368h-40c-4.4,0-8-3.6-8-8s3.6-8,8-8h40c4.4,0,8,3.6,8,8S244.4,368,240,368z"/>
	<path fill="#7E8488" d="M344,304h-24c-4.4,0-8-3.6-8-8s3.6-8,8-8h24c4.4,0,8,3.6,8,8S348.4,304,344,304z"/>
	<path fill="#7E8488" d="M344,336h-24c-4.4,0-8-3.6-8-8s3.6-8,8-8h24c4.4,0,8,3.6,8,8S348.4,336,344,336z"/>
	<path fill="#7E8488" d="M344,368h-24c-4.4,0-8-3.6-8-8s3.6-8,8-8h24c4.4,0,8,3.6,8,8S348.4,368,344,368z"/>
	<path fill="#7E8488" d="M312,400H200c-4.4,0-8-3.6-8-8s3.6-8,8-8h112c4.4,0,8,3.6,8,8S316.4,400,312,400z"/>
</g>
<path fill="#C2C5C6" d="M184,24h144l0,0v16c0,17.7-14.3,32-32,32h-80c-17.7,0-32-14.3-32-32V24L184,24z"/>
<circle fill="#7E8488" cx="256" cy="120" r="8"/>
<circle fill="#7E8488" cx="168" cy="296" r="8"/>
<circle fill="#7E8488" cx="168" cy="328" r="8"/>
<circle fill="#7E8488" cx="168" cy="360" r="8"/>
<path d="M240.3,125.2c0.8-2.4,3-4.1,5.5-4.1l26.8-0.5L270.6,7c-0.1-3.3,2.5-5.9,5.8-6l61.2-1c3.3-0.1,5.9,2.5,6,5.8l1.9,113.6
	l26.7-0.4c2.5,0,4.8,1.5,5.7,3.9c0.8,2.4,0.1,5-1.9,6.6l-62.4,48.9c-2.1,1.6-5,1.7-7.1,0.1l-64.1-46.7
	C240.4,130.2,239.5,127.6,240.3,125.2z"/>
<path d="M449.4,81.9h-18.6V3.1c0-2.3-1.8-4.1-4.1-4.1h-42.4c-2.3,0-4.1,1.8-4.1,4.1v78.8h-18.6c-1.8,0-3.3,1.1-3.9,2.8
	c-0.6,1.7,0,3.5,1.4,4.6l43.9,33.2c0.7,0.5,1.6,0.8,2.5,0.8c0.9,0,1.7-0.3,2.5-0.8l43.9-33.2c1.4-1.1,2-2.9,1.4-4.6
	C452.8,83,451.2,81.9,449.4,81.9z"/>
<path d="M405.6,114l-31.7-23.9h10.5c2.3,0,4.1-1.8,4.1-4.1V7.2h34.3V86c0,2.3,1.8,4.1,4.1,4.1h10.5L405.6,114z"/>
</svg>
