<?xml version="1.0" encoding="utf-8"?>
<!-- Generator: Adobe Illustrator 17.1.0, SVG Export Plug-In . SVG Version: 6.00 Build 0)  -->
<!DOCTYPE svg PUBLIC "-//W3C//DTD SVG 1.1//EN" "http://www.w3.org/Graphics/SVG/1.1/DTD/svg11.dtd">
<svg version="1.1" id="Layer_2_copy" xmlns="http://www.w3.org/2000/svg" xmlns:xlink="http://www.w3.org/1999/xlink" x="0px"
	 y="0px" viewBox="0 0 512 512" enable-background="new 0 0 512 512" xml:space="preserve">
<path fill="#1990BA" d="M288,392l-32-24V200h-80v192h36H288z"/>
<path fill="#23A3DB" d="M176,144v56h80V96H152l-16,128h27L176,144z"/>
<path fill="#FDCAA7" d="M184,96V21.5c0-7.5,6.1-13.5,13.5-13.5H240v45.7c0,12.2-4.9,22-17.1,22h-11.8V96H184z"/>
<path fill="#894619" d="M184,288h-80v-64h80V288z"/>
<path fill="#1990BA" d="M256,96l40,24V56h24v80.9c0,8.8-7.2,16-16,16c-1.9,0-3.8-0.3-5.6-1L256,136L256,96z"/>
<path fill="#129696" d="M288,24h72v32h-72V24z"/>
<path fill="#3DFAFF" d="M360,16h24v48h-24V16z"/>
<path fill="#F7D74F" d="M516,224H336v40l-56-56l56-48v32h180V224z"/>
<path fill="#147D99" d="M222.4,392l-13-19.6c-0.9-1.3-1.3-2.9-1.3-4.4V240h16v125.6l17.6,26.4H222.4z"/>
<path fill="#894619" d="M240,32V8h-42.5c-7.5,0-13.5,6.1-13.5,13.5l0,0V56l32-24H240z"/>
<path fill="#FDCAA7" d="M216,32l-32,24v40h27.1V75.7h11.8c12.1,0,17.1-9.8,17.1-22V32H216z"/>
<path fill="#EAC734" d="M0,448h104l48-56h160l56-56h80v-48l56,72l-56,72v-48h-64l-64,64H168l-48,56H0"/>
<path fill="#EAC734" d="M280,208h236v-16H336v-32L280,208z"/>
<path opacity="0.3" fill="#E28F56" enable-background="new    " d="M240,53.7V8h-15.5v50.1c0,4.9-2.4,9.6-6.4,12.5l-7,5.1h11.8
	C235.1,75.7,240,65.8,240,53.7z"/>
<path opacity="0.3" fill="#FFFFFF" enable-background="new    " d="M360,24h-72v8h96V16h-24V24z"/>
<path fill="#6B320C" d="M169,224h15v64h-15V224z"/>
<path fill="#F7D74F" d="M168,448h152l64-64h64v48l56-72l-0.3-0.3H377.7L320,420.3H162.3l-51.3,58H0V504h120L168,448z"/>
<path d="M454.3,283.1c-2.7-3.5-7.7-4.1-11.2-1.4c-1.9,1.5-3.1,3.8-3.1,6.3v40h-72c-2.1,0-4.2,0.8-5.7,2.3L308.7,384h-18L264,364
	V147.5l31.6,11.8c12.4,4.7,26.2-1.6,30.9-14c1-2.7,1.5-5.5,1.5-8.4V64h24c0,4.4,3.6,8,8,8h24c4.4,0,8-3.6,8-8V16c0-4.4-3.6-8-8-8
	h-24c-4.4,0-8,3.6-8,8h-64c-4.4,0-8,3.6-8,8v8h-24v16h24v8c0,4.4,3.6,8,8,8v41.9l-27.9-16.7v0c-1.2-0.8-2.7-1.1-4.1-1.1h-36.9v-4.3
	h3.8c15.5,0,25.1-11.5,25.1-30V8c0-4.4-3.6-8-8-8h-42.5C185.6,0,176,9.6,176,21.5V88h-24c-4,0-7.4,3-7.9,7l-15.1,121H104
	c-4.4,0-8,3.6-8,8v64c0,4.4,3.6,8,8,8h64v88h-16c-2.3,0-4.6,1-6.1,2.8L100.3,440H0v16h104c2.3,0,4.6-1,6.1-2.8l45.6-53.2H312
	c2.1,0,4.2-0.8,5.7-2.3l53.7-53.7H448c4.4,0,8-3.6,8-8v-24.7l37.9,48.7L456,408.7V384c0-4.4-3.6-8-8-8h-64c-2.1,0-4.2,0.8-5.7,2.3
	L316.7,440H168c-2.3,0-4.6,1-6.1,2.8L116.3,496H0v16h120c2.3,0,4.6-1,6.1-2.8l45.6-53.2H320c2.1,0,4.2-0.8,5.7-2.3l61.7-61.7H440v40
	c0,4.4,3.6,8,8,8c2.5,0,4.8-1.1,6.3-3.1l56-72c2.2-2.9,2.2-6.9,0-9.8L454.3,283.1z M376,24v32h-8V24H376z M296,32h56v16h-56V32z
	 M291.9,126.9c3.8,2.3,8.7,1,11-2.7c0.7-1.2,1.1-2.7,1.1-4.1V64h8v72.9c0,4.4-3.6,8-8,8c-1,0-1.9-0.2-2.8-0.5L264,130.5v-20.3
	L291.9,126.9z M197.5,16H232v8h-16c-1.7,0-3.4,0.6-4.8,1.6L192,40V21.5C192,18.5,194.5,16,197.5,16z M192,60l26.7-20H232v13.7
	c0,14-6.8,14-9.1,14h-11.8c-4.4,0-8,3.6-8,8V88H192L192,60z M112,232h64v48h-64V232z M184,384v-88c4.4,0,8-3.6,8-8v-64
	c0-4.4-3.6-8-8-8h-38.9l14-112h42.3l14.8,81.4l15.7-2.9L217.6,104H248v88h-64v-48h-16v56c0,4.4,3.6,8,8,8h72v160
	c0,2.5,1.2,4.9,3.2,6.4L264,384h-27.7L224,365.6V240h-16v128c0,1.6,0.5,3.1,1.3,4.4l7.7,11.6H184z"/>
<path d="M339.3,152.7c-2.8-1.3-6.2-0.8-8.5,1.2l-56,48c-3.4,2.9-3.7,7.9-0.9,11.3c0.1,0.2,0.3,0.3,0.4,0.5l56,56
	c3.1,3.1,8.2,3.1,11.3,0c1.5-1.5,2.3-3.5,2.3-5.7v-32h172v-16H336c-4.4,0-8,3.6-8,8v20.7l-36.2-36.2l36.2-31.1V192c0,4.4,3.6,8,8,8
	h180v-16H344v-24C344,156.9,342.2,154,339.3,152.7L339.3,152.7z"/>
</svg>
